<svg width="42" height="42" viewBox="0 0 42 42" fill="none" xmlns="http://www.w3.org/2000/svg"><g clip-path="url(#clip0)"><path d="M23.157 24.638c-1.826.36-4.442-.342-5.844-1.566L4.488 13.508c.113-.424.444-1.637.577-2.154.135-.523.678-.937 1.597-1.118L21.537 7.31c1.826-.36 4.442.342 5.843 1.565l11.42 9.972c.7.612.965 1.238.826 1.757l-.58 2.163-15.89 1.871z" fill="#E6675B"/><path d="M23.936 10.042l.681-2.543s1.362.152 2.763 1.376l11.42 9.971c.7.612.965 1.239.826 1.757l-.58 2.164-15.11-12.725z" fill="#FFB38C"/><ellipse cx="23.978" cy="8.447" rx="1.118" ry="1.104" transform="rotate(15 23.978 8.447)" fill="#FFB28C"/><path d="M20.972 9.42c1.825-.359 4.441.342 5.843 1.566l11.42 9.971c1.401 1.224 1.057 2.507-.768 2.866L22.59 26.749c-1.825.359-4.442-.342-5.843-1.566l-11.42-9.971c-1.401-1.224-1.057-2.507.768-2.866L20.972 9.42z" fill="#BF564C"/><ellipse cx="21.201" cy="20.249" rx="10.111" ry="5.444" transform="rotate(15 21.201 20.249)" fill="#E6675B"/><path d="M28.276 32.914c-.626 2.334-5.505 3.054-10.9 1.609-5.393-1.446-9.259-4.51-8.634-6.843l2.894-10.8 19.533 5.234-2.893 10.8z" fill="#E6675B"/><path d="M24.774 21.94c.42-1.568 2.357-2.183 3.678-1.167.738.566 1.046 1.567.812 2.442l-.923 3.445c-.18.67-1.187.854-1.717.407a10.411 10.411 0 00-1.544-1.059c-.683-.389-1.079-1.183-.875-1.942l.569-2.125z" fill="#FFB38C"/><ellipse cx="18.685" cy="29.64" rx="8.556" ry="3.5" transform="rotate(15 18.685 29.64)" fill="#993E35"/><path d="M7.987 9.46a.778.778 0 011.503.403L6.873 19.63a.778.778 0 01-1.503-.403l2.617-9.766z" fill="#F2C07E"/><path d="M4.82 18.275a1.556 1.556 0 013.005.805l-.402 1.503a1.556 1.556 0 01-3.005-.805l.403-1.503z" fill="#F2C07E"/></g><defs><clipPath id="clip0"><path fill="#fff" d="M0 0h42v42H0z"/></clipPath></defs></svg>